<?xml version="1.0" encoding="utf-8"?>
<!-- Generator: Adobe Illustrator 25.0.1, SVG Export Plug-In . SVG Version: 6.00 Build 0)  -->
<svg version="1.1" id="Layer_1" xmlns="http://www.w3.org/2000/svg" xmlns:xlink="http://www.w3.org/1999/xlink" x="0px" y="0px"
	 viewBox="0 0 193.4 39.9" style="enable-background:new 0 0 193.4 39.9;" xml:space="preserve">
<style type="text/css">
	.st0{fill:#11B4DA;}
	.st1{fill:#FFFFFF;}
</style>
<g>
	<path class="st0" d="M13.6,13.5h1.3V25h-1.5l-4.2-8.8h0V25H7.9V13.5h1.5l4.2,8.8h0.1L13.6,13.5L13.6,13.5z"/>
	<path class="st0" d="M18.7,23.8h4.4V25h-5.7V13.5H23v1.2h-4.2v3.8h3.7v1.2h-3.7v4.1H18.7z"/>
	<path class="st0" d="M28,13.5c1,0,1.8,0.3,2.4,0.9c0.6,0.6,0.9,1.4,0.9,2.5s-0.3,1.9-0.9,2.5S29,20.3,28,20.3h-1.7V25H25V13.5H28z
		 M27.8,19.2c0.7,0,1.2-0.2,1.5-0.6c0.4-0.4,0.5-0.9,0.5-1.7c0-0.7-0.2-1.3-0.5-1.6c-0.4-0.4-0.9-0.6-1.5-0.6h-1.6v4.4h1.6V19.2z"/>
	<path class="st0" d="M38.1,25l-0.8-3.2h-3.4L33.1,25h-1.4l3.1-11.5h1.7L39.6,25H38.1z M34.2,20.6H37l-1.3-5.3h-0.1L34.2,20.6z"/>
	<path class="st0" d="M42.5,23.8h4.3V25h-5.6V13.5h1.3V23.8z"/>
	<path class="st0" d="M59.4,25H58l-2-4.9h-1.7V25H53V13.5h3.1c0.9,0,1.7,0.3,2.2,0.9c0.5,0.6,0.8,1.4,0.8,2.4c0,0.8-0.2,1.4-0.5,2
		c-0.3,0.5-0.8,0.9-1.4,1.1L59.4,25z M54.3,14.7v4.2h1.6c0.6,0,1.1-0.2,1.4-0.6s0.5-0.9,0.5-1.6s-0.2-1.2-0.5-1.5
		c-0.3-0.4-0.8-0.5-1.4-0.5C55.9,14.7,54.3,14.7,54.3,14.7z"/>
	<path class="st0" d="M62.5,23.8h4.4V25h-5.7V13.5h5.6v1.2h-4.2v3.8h3.7v1.2h-3.7v4.1H62.5z"/>
	<path class="st0" d="M70.1,23.8h4.3V25h-5.6V13.5h1.3C70.1,13.5,70.1,23.8,70.1,23.8z"/>
	<path class="st0" d="M77.4,13.5V25H76V13.5H77.4z"/>
	<path class="st0" d="M81.1,23.8h4.4V25h-5.7V13.5h5.6v1.2h-4.2v3.8h3.7v1.2h-3.7v4.1H81.1z"/>
	<path class="st0" d="M92.9,14.8h-4.2v3.9h3.7v1.2h-3.7V25h-1.4V13.5h5.5L92.9,14.8L92.9,14.8z"/>
</g>
<rect x="100.7" y="8.6" class="st0" width="85.2" height="21.2"/>
<g>
	<path class="st1" d="M112.2,14c0.8,0,1.5,0.3,2,0.8s0.7,1.2,0.7,2.2s-0.2,1.7-0.7,2.2S113,20,112.1,20h-1.6v4.5h-0.7V14H112.2z
		 M112,19.2c0.7,0,1.2-0.2,1.6-0.6s0.6-1,0.6-1.7c0-0.8-0.2-1.3-0.6-1.7s-0.9-0.6-1.5-0.6h-1.7v4.6C110.4,19.2,112,19.2,112,19.2z"
		/>
	<path class="st1" d="M125.4,24.5c-1.1,0-1.9-0.5-2.6-1.4s-1-2.2-1-4c0-1.7,0.3-3.1,1-4s1.5-1.4,2.6-1.4s1.9,0.5,2.6,1.4s1,2.2,1,4
		c0,1.7-0.3,3.1-1,4S126.5,24.5,125.4,24.5z M123.3,22.6c0.5,0.8,1.2,1.2,2.1,1.2c0.8,0,1.5-0.4,2.1-1.2c0.5-0.8,0.8-2,0.8-3.5
		s-0.3-2.7-0.8-3.5s-1.2-1.2-2.1-1.2c-0.8,0-1.5,0.4-2,1.2c-0.5,0.8-0.8,2-0.8,3.5S122.8,21.8,123.3,22.6z"/>
	<path class="st1" d="M141.6,24.3h-0.8l-2.1-4.7H137v4.7h-0.7V14h2.4c0.8,0,1.4,0.3,1.9,0.8s0.7,1.2,0.7,2c0,0.7-0.2,1.3-0.5,1.8
		s-0.8,0.8-1.4,0.9L141.6,24.3z M137,14.6V19h1.6c0.6,0,1.1-0.2,1.5-0.6s0.5-0.9,0.5-1.6s-0.2-1.2-0.5-1.6c-0.4-0.4-0.9-0.6-1.5-0.6
		C138.6,14.6,137,14.6,137,14.6z"/>
	<path class="st1" d="M153.8,14v0.7h-2.6v9.7h-0.7v-9.7h-2.6V14H153.8z"/>
	<path class="st1" d="M164.7,24.3l-0.8-3.2h-3.3l-0.8,3.2H159l2.7-10.4h0.9l2.8,10.4H164.7z M160.8,20.5h2.9l-1.4-5.5h-0.1
		L160.8,20.5z"/>
	<path class="st1" d="M173,23.7h3.9v0.7h-4.6V14h0.7L173,23.7L173,23.7z"/>
</g>
</svg>
