<?xml version="1.0" encoding="utf-8"?>
<!-- Generator: Adobe Illustrator 25.0.1, SVG Export Plug-In . SVG Version: 6.00 Build 0)  -->
<svg version="1.1" id="Layer_1" xmlns="http://www.w3.org/2000/svg" xmlns:xlink="http://www.w3.org/1999/xlink" x="0px" y="0px"
	 viewBox="0 0 205.5 39.9" style="enable-background:new 0 0 205.5 39.9;" xml:space="preserve">
<style type="text/css">
	.st0{fill:#11B4DA;}
	.st1{fill:#FFFFFF;}
</style>
<g>
	<path class="st0" d="M13.6,13.4h1.3v11.5h-1.5l-4.2-8.8H9.2v8.8H7.9V13.4h1.5l4.2,8.8h0.1V13.4z"/>
	<path class="st0" d="M18.7,23.7h4.4v1.2h-5.7V13.4h5.6v1.2h-4.2v3.8h3.7v1.2h-3.7V23.7z"/>
	<path class="st0" d="M28,13.4c1,0,1.8,0.3,2.4,0.9c0.6,0.6,0.9,1.4,0.9,2.5c0,1.1-0.3,1.9-0.9,2.5c-0.6,0.6-1.4,0.9-2.4,0.9h-1.7
		v4.6h-1.3V13.4H28z M27.8,19.1c0.7,0,1.2-0.2,1.5-0.6c0.4-0.4,0.5-0.9,0.5-1.7c0-0.7-0.2-1.3-0.5-1.6c-0.4-0.4-0.9-0.6-1.5-0.6
		h-1.6v4.4H27.8z"/>
	<path class="st0" d="M38.1,24.9l-0.8-3.2h-3.4l-0.8,3.2h-1.4l3.1-11.5h1.7l3.1,11.5H38.1z M34.2,20.5H37l-1.3-5.3h-0.1L34.2,20.5z"
		/>
	<path class="st0" d="M42.5,23.7h4.3v1.2h-5.6V13.4h1.3V23.7z"/>
	<path class="st0" d="M59.4,24.9H58L56,20h-1.7v4.9H53V13.4h3.1c0.9,0,1.7,0.3,2.2,0.9c0.5,0.6,0.8,1.4,0.8,2.4c0,0.8-0.2,1.4-0.5,2
		c-0.3,0.5-0.8,0.9-1.4,1.1L59.4,24.9z M54.3,14.6v4.2h1.6c0.6,0,1.1-0.2,1.4-0.6s0.5-0.9,0.5-1.6s-0.2-1.2-0.5-1.5
		c-0.3-0.4-0.8-0.5-1.4-0.5H54.3z"/>
	<path class="st0" d="M62.5,23.7h4.4v1.2h-5.7V13.4h5.6v1.2h-4.2v3.8h3.7v1.2h-3.7V23.7z"/>
	<path class="st0" d="M70.1,23.7h4.3v1.2h-5.6V13.4h1.3V23.7z"/>
	<path class="st0" d="M77.4,13.4v11.5H76V13.4H77.4z"/>
	<path class="st0" d="M81.1,23.7h4.4v1.2h-5.7V13.4h5.6v1.2h-4.2v3.8h3.7v1.2h-3.7V23.7z"/>
	<path class="st0" d="M92.9,14.7h-4.2v3.9h3.7v1.2h-3.7v5.1h-1.4V13.4h5.5V14.7z"/>
</g>
<rect x="100.7" y="8.6" class="st0" width="85.2" height="21.2"/>
<g>
	<path class="st1" d="M112.2,14c0.8,0,1.5,0.3,2,0.8s0.7,1.2,0.7,2.2s-0.2,1.7-0.7,2.2c-0.5,0.5-1.2,0.8-2.1,0.8h-1.6v4.5h-0.7V14
		H112.2z M112,19.2c0.7,0,1.2-0.2,1.6-0.6c0.4-0.4,0.6-1,0.6-1.7c0-0.8-0.2-1.3-0.6-1.7c-0.4-0.4-0.9-0.6-1.5-0.6h-1.7v4.6H112z"/>
	<path class="st1" d="M125.4,24.5c-1.1,0-1.9-0.5-2.6-1.4c-0.7-0.9-1-2.2-1-4c0-1.7,0.3-3.1,1-4c0.7-0.9,1.5-1.4,2.6-1.4
		c1.1,0,1.9,0.5,2.6,1.4c0.7,0.9,1,2.2,1,4c0,1.7-0.3,3.1-1,4S126.5,24.5,125.4,24.5z M123.3,22.6c0.5,0.8,1.2,1.2,2.1,1.2
		c0.8,0,1.5-0.4,2.1-1.2c0.5-0.8,0.8-2,0.8-3.5s-0.3-2.7-0.8-3.5s-1.2-1.2-2.1-1.2c-0.8,0-1.5,0.4-2,1.2c-0.5,0.8-0.8,2-0.8,3.5
		S122.8,21.8,123.3,22.6z"/>
	<path class="st1" d="M141.6,24.3h-0.8l-2.1-4.7H137v4.7h-0.7V14h2.4c0.8,0,1.4,0.3,1.9,0.8s0.7,1.2,0.7,2c0,0.7-0.2,1.3-0.5,1.8
		c-0.3,0.5-0.8,0.8-1.4,0.9L141.6,24.3z M137,14.6V19h1.6c0.6,0,1.1-0.2,1.5-0.6c0.4-0.4,0.5-0.9,0.5-1.6c0-0.7-0.2-1.2-0.5-1.6
		c-0.4-0.4-0.9-0.6-1.5-0.6H137z"/>
	<path class="st1" d="M153.8,14v0.7h-2.6v9.7h-0.7v-9.7h-2.6V14H153.8z"/>
	<path class="st1" d="M164.7,24.3l-0.8-3.2h-3.3l-0.8,3.2H159l2.7-10.4h0.9l2.8,10.4H164.7z M160.8,20.5h2.9l-1.4-5.5h-0.1
		L160.8,20.5z"/>
	<path class="st1" d="M173,23.7h3.9v0.7h-4.6V14h0.7V23.7z"/>
</g>
</svg>
