<?xml version="1.0" encoding="utf-8"?>
<!-- Generator: Adobe Illustrator 25.0.1, SVG Export Plug-In . SVG Version: 6.00 Build 0)  -->
<svg version="1.1" id="Layer_1" xmlns="http://www.w3.org/2000/svg" xmlns:xlink="http://www.w3.org/1999/xlink" x="0px" y="0px"
	 viewBox="0 0 258.71 39.88" style="enable-background:new 0 0 258.71 39.88;" xml:space="preserve">
<style type="text/css">
	.st0{fill:#13B6CA;}
	.st1{fill:#FFFFFF;}
</style>
<g>
	<path class="st0" d="M5.82,13.81h2.84l2.8,4.7c0.5,0.85,0.98,1.71,1.45,2.6c0.47,0.88,0.83,1.68,1.08,2.4h0.04
		c-0.07-0.89-0.11-1.79-0.12-2.69c-0.01-0.9-0.02-1.79-0.02-2.69v-4.33h2.84v14.05h-2.84l-2.96-4.79c-0.49-0.79-0.93-1.59-1.34-2.41
		c-0.41-0.82-0.75-1.68-1.03-2.59H8.51c0.07,0.94,0.11,1.84,0.12,2.7c0.01,0.86,0.02,1.74,0.02,2.63v4.46H5.82V13.81z"/>
	<path class="st0" d="M19.43,13.81h8.51v2.59h-5.43v2.88h4.91v2.56h-4.91v3.43H28v2.59h-8.57V13.81z"/>
	<path class="st0" d="M30.22,13.81h4.62c0.77,0,1.47,0.1,2.09,0.29c0.62,0.19,1.15,0.48,1.59,0.85c0.44,0.37,0.78,0.82,1.01,1.35
		c0.24,0.53,0.35,1.13,0.35,1.82c0,0.82-0.14,1.52-0.43,2.12c-0.28,0.59-0.67,1.09-1.15,1.48c-0.48,0.39-1.04,0.68-1.68,0.87
		c-0.64,0.19-1.32,0.28-2.04,0.28h-1.3v4.99h-3.08V13.81z M33.3,20.3h1.12c0.3,0,0.59-0.04,0.87-0.11s0.53-0.19,0.74-0.35
		c0.21-0.16,0.38-0.36,0.51-0.61c0.13-0.25,0.19-0.56,0.19-0.94c0-0.64-0.2-1.12-0.6-1.45c-0.4-0.33-0.93-0.49-1.59-0.49H33.3V20.3z
		"/>
	<path class="st0" d="M44.29,13.81h3.28l4.6,14.05h-3.26l-0.87-3.01h-4.3l-0.87,3.01h-3.22L44.29,13.81z M44.41,22.39h2.92
		l-0.49-1.69c-0.16-0.55-0.33-1.14-0.5-1.76c-0.17-0.62-0.31-1.2-0.44-1.72h-0.04c-0.14,0.52-0.29,1.09-0.47,1.69
		c-0.18,0.61-0.34,1.2-0.51,1.78L44.41,22.39z"/>
	<path class="st0" d="M53.7,13.81h3.08v11.42h5.05v2.63H53.7V13.81z"/>
	<path class="st0" d="M67.97,13.81h5.07c0.73,0,1.38,0.11,1.94,0.35c0.56,0.23,1.03,0.55,1.4,0.95c0.37,0.4,0.65,0.87,0.84,1.4
		c0.19,0.53,0.28,1.11,0.28,1.72c0,0.58-0.08,1.09-0.23,1.53c-0.16,0.44-0.36,0.82-0.6,1.15c-0.24,0.33-0.51,0.59-0.79,0.8
		c-0.28,0.21-0.55,0.37-0.79,0.49l3.06,5.66h-3.55l-2.27-5.06h-1.28v5.06h-3.08V13.81z M71.05,20.23h0.93c0.7,0,1.27-0.16,1.7-0.47
		c0.43-0.31,0.65-0.82,0.65-1.52c0-0.58-0.18-1.04-0.53-1.38c-0.35-0.34-0.86-0.51-1.52-0.51h-1.24V20.23z"/>
	<path class="st0" d="M79.74,13.81h8.51v2.59h-5.43v2.88h4.91v2.56h-4.91v3.43h5.49v2.59h-8.57V13.81z"/>
	<path class="st0" d="M90.53,13.81h3.08v11.42h5.05v2.63h-8.13V13.81z"/>
	<path class="st0" d="M103.13,13.81v14.05h-3.08V13.81H103.13z"/>
	<path class="st0" d="M105.84,13.81h8.51v2.59h-5.43v2.88h4.91v2.56h-4.91v3.43h5.49v2.59h-8.57V13.81z"/>
	<path class="st0" d="M124.95,13.81v2.59h-5.23v3.43h4.78v2.56h-4.78v5.46h-3.08V13.81H124.95z"/>
</g>
<rect x="130.54" y="10.33" class="st0" width="119.11" height="21"/>
<g>
	<path class="st1" d="M136.06,14.5h3.89c0.64,0,1.24,0.08,1.79,0.25c0.55,0.17,1.02,0.42,1.42,0.75c0.4,0.33,0.71,0.74,0.92,1.22
		c0.22,0.48,0.33,1.05,0.33,1.69c0,0.66-0.12,1.24-0.36,1.73c-0.24,0.5-0.56,0.91-0.98,1.24c-0.41,0.33-0.9,0.58-1.47,0.75
		c-0.57,0.17-1.19,0.25-1.86,0.25h-2.16v5.36h-1.51V14.5z M137.58,21.14h1.51c0.55,0,1.05-0.04,1.51-0.13
		c0.46-0.08,0.85-0.23,1.18-0.43c0.32-0.2,0.57-0.48,0.76-0.83c0.18-0.35,0.27-0.79,0.27-1.32c0-0.52-0.09-0.95-0.28-1.3
		c-0.19-0.35-0.43-0.63-0.74-0.84c-0.3-0.21-0.65-0.36-1.04-0.44c-0.39-0.08-0.79-0.13-1.2-0.13h-1.98V21.14z"/>
	<path class="st1" d="M161.01,14.33c0.84,0,1.63,0.14,2.36,0.42c0.74,0.28,1.37,0.7,1.9,1.27s0.95,1.28,1.26,2.12
		c0.31,0.85,0.46,1.84,0.46,2.97c0,1.11-0.16,2.08-0.47,2.93c-0.31,0.85-0.75,1.56-1.29,2.13c-0.55,0.58-1.19,1.01-1.93,1.3
		c-0.74,0.29-1.53,0.44-2.37,0.44c-0.84,0-1.63-0.14-2.36-0.43c-0.74-0.29-1.37-0.71-1.9-1.28c-0.53-0.57-0.95-1.27-1.26-2.12
		c-0.31-0.85-0.46-1.84-0.46-2.97c0-1.11,0.16-2.08,0.47-2.92c0.31-0.84,0.75-1.55,1.29-2.12c0.55-0.57,1.19-1.01,1.92-1.3
		C159.36,14.48,160.16,14.33,161.01,14.33z M156.56,21.12c0,0.95,0.12,1.78,0.36,2.48c0.24,0.7,0.56,1.28,0.97,1.74
		c0.41,0.46,0.88,0.81,1.42,1.03c0.54,0.22,1.11,0.34,1.71,0.34c0.6,0,1.17-0.11,1.69-0.34c0.53-0.22,0.99-0.57,1.39-1.03
		c0.4-0.46,0.71-1.04,0.95-1.74c0.23-0.7,0.35-1.53,0.35-2.48c0-0.97-0.12-1.8-0.36-2.51c-0.24-0.71-0.56-1.29-0.97-1.73
		c-0.41-0.45-0.88-0.78-1.42-1c-0.54-0.22-1.11-0.33-1.71-0.33c-0.6,0-1.17,0.11-1.69,0.34c-0.53,0.22-0.99,0.57-1.39,1.03
		c-0.4,0.46-0.71,1.04-0.95,1.74C156.67,19.36,156.56,20.18,156.56,21.12z"/>
	<path class="st1" d="M178.48,14.5h4.08c0.69,0,1.29,0.09,1.82,0.28c0.53,0.19,0.96,0.45,1.31,0.79c0.35,0.34,0.62,0.74,0.8,1.21
		c0.18,0.47,0.27,0.98,0.27,1.54c0,0.5-0.08,0.96-0.23,1.38c-0.15,0.41-0.36,0.77-0.62,1.08c-0.26,0.31-0.56,0.57-0.89,0.78
		c-0.34,0.21-0.69,0.38-1.05,0.5l3.59,5.67h-1.72l-3.28-5.4h-2.67v5.4h-1.41V14.5z M179.88,21.12h2.02c0.46,0,0.89-0.05,1.29-0.16
		c0.4-0.1,0.75-0.27,1.04-0.49c0.29-0.22,0.53-0.51,0.69-0.85c0.17-0.34,0.25-0.75,0.25-1.23c0-0.92-0.26-1.6-0.79-2.03
		c-0.53-0.43-1.3-0.64-2.32-0.64h-2.19V21.12z"/>
	<path class="st1" d="M206.96,14.5v1.26h-4.35v11.98h-1.51V15.76h-4.27V14.5H206.96z"/>
	<path class="st1" d="M219.63,14.5h1.41l5.13,13.24h-1.6l-1.45-3.78h-5.67l-1.45,3.78h-1.58L219.63,14.5z M217.87,22.74h4.79
		l-1.05-2.84c-0.2-0.49-0.4-1.05-0.61-1.67c-0.21-0.62-0.43-1.31-0.67-2.05h-0.04c-0.11,0.37-0.22,0.71-0.34,1.03
		c-0.11,0.32-0.22,0.63-0.33,0.92c-0.1,0.29-0.21,0.59-0.31,0.87c-0.1,0.29-0.22,0.59-0.35,0.89L217.87,22.74z"/>
	<path class="st1" d="M236.93,14.5h1.51v11.98h5.86v1.26h-7.38V14.5z"/>
</g>
</svg>
